<?xml version="1.0" encoding="UTF-8" standalone="no"?>
<svg width="600" height="400" viewBox="0 0 600 400" fill="none" xmlns="http://www.w3.org/2000/svg">
  <!-- Logo -->
  <g transform="translate(150, 50)">
    <!-- Circle background -->
    <circle cx="150" cy="150" r="140" fill="#F8F8F8" stroke="#0F172A" stroke-width="4"/>
    
    <!-- Stylized handshake - left hand -->
    <path d="M90,110 C100,105 110,105 120,110 L120,190 C110,195 100,195 90,190 Z" 
          fill="none" stroke="#0F172A" stroke-width="6" stroke-linejoin="round"/>
    
    <!-- Stylized handshake - right hand -->
    <path d="M180,110 C190,105 200,105 210,110 L210,190 C200,195 190,195 180,190 Z" 
          fill="none" stroke="#0F172A" stroke-width="6" stroke-linejoin="round"/>
    
    <!-- Connection between hands -->
    <path d="M120,150 C130,140 170,140 180,150" 
          fill="none" stroke="#0F172A" stroke-width="6" stroke-linecap="round"/>
    
    <!-- Subtle "A" shape in negative space -->
    <path d="M140,130 L150,110 L160,130" 
          fill="none" stroke="#0F172A" stroke-width="5" stroke-linecap="round" stroke-linejoin="round"/>
    
    <!-- Subtle "I" shape at center -->
    <path d="M150,135 L150,165" 
          fill="none" stroke="#0F172A" stroke-width="5" stroke-linecap="round"/>
  </g>
  
  <!-- Company Name -->
  <text x="300" y="350" font-family="Arial, sans-serif" font-size="48" font-weight="bold" fill="#0F172A" text-anchor="middle">
    DecA(I)de
  </text>
  
  <!-- Tagline -->
  <text x="300" y="380" font-family="Arial, sans-serif" font-size="18" fill="#0F172A" text-anchor="middle">
    Who says there's no I in team?
  </text>
</svg>